{
	"asset":{
		"generator":"Khronos glTF Blender I/O v4.2.57",
		"version":"2.0"
	},
	"scene":0,
	"scenes":[
		{
			"name":"Scene",
			"nodes":[
				0
			]
		}
	],
	"nodes":[
		{
			"mesh":0,
			"name":"Plane"
		}
	],
	"meshes":[
		{
			"name":"Plane",
			"primitives":[
				{
					"attributes":{
						"POSITION":0,
						"NORMAL":1,
						"TEXCOORD_0":2
					},
					"indices":3
				}
			]
		}
	],
	"accessors":[
		{
			"bufferView":0,
			"componentType":5126,
			"count":2122,
			"max":[
				503.8743591308594,
				88.77770233154297,
				500.3520812988281
			],
			"min":[
				-501.94842529296875,
				-57.488853454589844,
				-500.78375244140625
			],
			"type":"VEC3"
		},
		{
			"bufferView":1,
			"componentType":5126,
			"count":2122,
			"type":"VEC3"
		},
		{
			"bufferView":2,
			"componentType":5126,
			"count":2122,
			"type":"VEC2"
		},
		{
			"bufferView":3,
			"componentType":5123,
			"count":11640,
			"type":"SCALAR"
		}
	],
	"bufferViews":[
		{
			"buffer":0,
			"byteLength":25464,
			"byteOffset":0,
			"target":34962
		},
		{
			"buffer":0,
			"byteLength":25464,
			"byteOffset":25464,
			"target":34962
		},
		{
			"buffer":0,
			"byteLength":16976,
			"byteOffset":50928,
			"target":34962
		},
		{
			"buffer":0,
			"byteLength":23280,
			"byteOffset":67904,
			"target":34963
		}
	],
	"buffers":[
		{
			"byteLength":91184,
			"uri":"hub.bin"
		}
	]
}
