{
	"asset":{
		"generator":"Khronos glTF Blender I/O v4.2.60",
		"version":"2.0"
	},
	"scene":0,
	"scenes":[
		{
			"name":"Scene",
			"nodes":[
				0
			]
		}
	],
	"nodes":[
		{
			"mesh":0,
			"name":"Root"
		}
	],
	"materials":[
		{
			"name":"Material.001",
			"pbrMetallicRoughness":{
				"metallicFactor":0
			}
		}
	],
	"meshes":[
		{
			"name":"Terrain",
			"primitives":[
				{
					"attributes":{
						"POSITION":0,
						"NORMAL":1,
						"TEXCOORD_0":2
					},
					"indices":3,
					"material":0
				}
			]
		}
	],
	"accessors":[
		{
			"bufferView":0,
			"componentType":5126,
			"count":5301,
			"max":[
				1024.0201416015625,
				188.87840270996094,
				1024.0086669921875
			],
			"min":[
				-0.0064041526056826115,
				36.933319091796875,
				-0.00735405832529068
			],
			"type":"VEC3"
		},
		{
			"bufferView":1,
			"componentType":5126,
			"count":5301,
			"type":"VEC3"
		},
		{
			"bufferView":2,
			"componentType":5126,
			"count":5301,
			"type":"VEC2"
		},
		{
			"bufferView":3,
			"componentType":5123,
			"count":31392,
			"type":"SCALAR"
		}
	],
	"bufferViews":[
		{
			"buffer":0,
			"byteLength":63612,
			"byteOffset":0,
			"target":34962
		},
		{
			"buffer":0,
			"byteLength":63612,
			"byteOffset":63612,
			"target":34962
		},
		{
			"buffer":0,
			"byteLength":42408,
			"byteOffset":127224,
			"target":34962
		},
		{
			"buffer":0,
			"byteLength":62784,
			"byteOffset":169632,
			"target":34963
		}
	],
	"buffers":[
		{
			"byteLength":232416,
			"uri":"Terrain_Collision.bin"
		}
	]
}
