{
	"asset":{
		"generator":"Khronos glTF Blender I/O v4.2.57",
		"version":"2.0"
	},
	"scene":0,
	"scenes":[
		{
			"name":"Scene",
			"nodes":[
				0
			]
		}
	],
	"nodes":[
		{
			"mesh":0,
			"name":"Cube",
			"scale":[
				6.243651390075684,
				1,
				1
			],
			"translation":[
				0,
				1.0085573196411133,
				0
			]
		}
	],
	"materials":[
		{
			"doubleSided":true,
			"name":"Material",
			"pbrMetallicRoughness":{
				"baseColorFactor":[
					0.800000011920929,
					0.800000011920929,
					0.800000011920929,
					1
				],
				"metallicFactor":0,
				"roughnessFactor":0.5
			}
		}
	],
	"meshes":[
		{
			"name":"Cube",
			"primitives":[
				{
					"attributes":{
						"POSITION":0,
						"NORMAL":1,
						"TEXCOORD_0":2
					},
					"indices":3,
					"material":0
				}
			]
		}
	],
	"accessors":[
		{
			"bufferView":0,
			"componentType":5126,
			"count":316,
			"max":[
				1.0000001192092896,
				2.040189743041992,
				0.3706948757171631
			],
			"min":[
				-1.0000001192092896,
				-8.667770385742188,
				-0.3759877681732178
			],
			"type":"VEC3"
		},
		{
			"bufferView":1,
			"componentType":5126,
			"count":316,
			"type":"VEC3"
		},
		{
			"bufferView":2,
			"componentType":5126,
			"count":316,
			"type":"VEC2"
		},
		{
			"bufferView":3,
			"componentType":5123,
			"count":1230,
			"type":"SCALAR"
		}
	],
	"bufferViews":[
		{
			"buffer":0,
			"byteLength":3792,
			"byteOffset":0,
			"target":34962
		},
		{
			"buffer":0,
			"byteLength":3792,
			"byteOffset":3792,
			"target":34962
		},
		{
			"buffer":0,
			"byteLength":2528,
			"byteOffset":7584,
			"target":34962
		},
		{
			"buffer":0,
			"byteLength":2460,
			"byteOffset":10112,
			"target":34963
		}
	],
	"buffers":[
		{
			"byteLength":12572,
			"uri":"far_slash.bin"
		}
	]
}
