{
	"asset":{
		"generator":"Khronos glTF Blender I/O v4.1.63",
		"version":"2.0"
	},
	"extensionsUsed":[
		"KHR_materials_specular"
	],
	"scene":0,
	"scenes":[
		{
			"name":"Scene",
			"nodes":[
				0
			]
		}
	],
	"nodes":[
		{
			"mesh":0,
			"name":"V1_U2_P20_N0"
		}
	],
	"materials":[
		{
			"doubleSided":true,
			"extensions":{
				"KHR_materials_specular":{
					"specularFactor":0
				}
			},
			"name":"01___Default",
			"pbrMetallicRoughness":{
				"baseColorTexture":{
					"index":0
				},
				"metallicFactor":0,
				"roughnessFactor":0.8999999761581421
			}
		}
	],
	"meshes":[
		{
			"name":"V1_U2_P20_N0",
			"primitives":[
				{
					"attributes":{
						"POSITION":0,
						"NORMAL":1,
						"TEXCOORD_0":2
					},
					"indices":3,
					"material":0
				}
			]
		}
	],
	"textures":[
		{
			"sampler":0,
			"source":0
		}
	],
	"images":[
		{
			"mimeType":"image/png",
			"name":"CH_SN_SWD_DIF_M3_stage1",
			"uri":"CH_SN_SWD_DIF_M3_stage1.png"
		}
	],
	"accessors":[
		{
			"bufferView":0,
			"componentType":5126,
			"count":850,
			"max":[
				0.3839426338672638,
				0.6462152600288391,
				0.09044677764177322
			],
			"min":[
				-0.38403257727622986,
				-0.7435271739959717,
				-0.09050780534744263
			],
			"type":"VEC3"
		},
		{
			"bufferView":1,
			"componentType":5126,
			"count":850,
			"type":"VEC3"
		},
		{
			"bufferView":2,
			"componentType":5126,
			"count":850,
			"type":"VEC2"
		},
		{
			"bufferView":3,
			"componentType":5123,
			"count":1152,
			"type":"SCALAR"
		}
	],
	"bufferViews":[
		{
			"buffer":0,
			"byteLength":10200,
			"byteOffset":0,
			"target":34962
		},
		{
			"buffer":0,
			"byteLength":10200,
			"byteOffset":10200,
			"target":34962
		},
		{
			"buffer":0,
			"byteLength":6800,
			"byteOffset":20400,
			"target":34962
		},
		{
			"buffer":0,
			"byteLength":2304,
			"byteOffset":27200,
			"target":34963
		}
	],
	"samplers":[
		{
			"magFilter":9729,
			"minFilter":9987
		}
	],
	"buffers":[
		{
			"byteLength":29504,
			"uri":"Caliburn.bin"
		}
	]
}
